<svg data-v-423bf9ae="" xmlns="http://www.w3.org/2000/svg" viewBox="0 0 215 90" class="iconLeft"><!----><!----><!----><g data-v-423bf9ae="" id="5b837372-1f9d-462a-a7be-9df3c4c8fb65" fill="#35291E" transform="matrix(4.902954106033602,0,0,4.902954106033602,109.95039801667625,0.2911386355735104)"><path d="M3.42 3.00Q1.39 4.17 1.10 6.06L1.10 6.06L0.03 11.42Q-0.10 12.35 0.62 12.71L0.62 12.71L2.40 11.41L2.26 11.22Q1.07 12.15 1.76 9.77L1.76 9.77Q2.28 9.55 2.57 9.77Q2.86 9.99 3.28 11.36Q3.70 12.74 4.20 12.74L4.20 12.74L5.82 11.23L5.65 11.05Q4.90 11.89 4.56 10.46Q4.22 9.03 3.44 8.89L3.44 8.89Q4.05 8.59 4.52 8.01Q4.98 7.42 4.94 6.52L4.94 6.52L3.21 7.51Q3.31 8.44 3.01 8.72Q2.71 9.00 1.77 9.29L1.77 9.29L2.58 5.26Q2.94 3.53 3.60 3.12L3.60 3.12L3.42 3.00ZM4.83 14.52Q6.17 15.87 8.04 14.68Q9.91 13.48 10.45 11.97L10.45 11.97L11.32 7.62Q11.38 6.62 10.70 6.47L10.70 6.47L8.93 7.93L9.04 8.15L9.56 7.73Q9.97 7.70 9.72 8.70L9.72 8.70L9.29 10.87Q8.61 11.44 7.91 11.38Q7.21 11.32 7.32 10.16L7.32 10.16L7.83 7.64Q8.04 6.64 7.27 6.49L7.27 6.49L5.54 8.03L5.63 8.28L6.13 7.88Q6.58 7.67 6.41 8.60L6.41 8.60L5.97 10.79Q5.78 12.26 7.16 12.76L7.16 12.76Q8.20 12.23 9.23 11.46L9.23 11.46L9.07 12.25Q8.80 14.14 7.71 14.25Q6.62 14.35 5.87 13.43L5.87 13.43L4.83 14.52ZM13.31 6.58L11.56 8.23L11.71 8.37Q12.29 7.79 12.52 7.91Q12.75 8.04 12.52 8.80L12.52 8.80L11.83 11.58Q11.71 12.56 12.38 12.71L12.38 12.71L14.06 11.40L13.99 11.27Q13.19 11.70 13.34 11.05L13.34 11.05L14.01 8.37Q14.25 7.57 14.62 7.54Q14.98 7.51 15.18 8.24L15.18 8.24L16.56 7.35Q16.29 6.67 15.81 6.55Q15.33 6.43 14.91 6.75Q14.48 7.07 14.11 7.58L14.11 7.58Q14.21 6.70 13.31 6.58L13.31 6.58ZM19.10 6.52Q18.17 7.02 17.20 8.07Q16.24 9.11 16.03 9.85Q15.83 10.59 16.41 11.61Q16.98 12.63 17.40 12.68L17.40 12.68Q18.29 12.04 18.85 11.63L18.85 11.63Q18.89 12.37 19.71 12.73L19.71 12.73L21.38 11.09L21.19 10.94L20.83 11.26Q20.45 11.42 20.29 11.14Q20.13 10.87 20.22 10.47L20.22 10.47L20.88 7.18Q21 6.68 21.38 6.51L21.38 6.51L19.10 6.52ZM18.09 7.60L19.75 7.60L19.42 8.07L19.37 8.32L18.78 11.25Q18.09 11.72 17.47 10.45Q16.84 9.17 18.09 7.60L18.09 7.60Z"></path></g><defs data-v-423bf9ae=""><linearGradient data-v-423bf9ae="" gradientTransform="rotate(25)" id="ad3bbad3-cb15-405e-9474-0c45e9e60af3" x1="0%" y1="0%" x2="100%" y2="0%"><stop data-v-423bf9ae="" offset="0%" style="stop-color: rgb(95, 37, 23); stop-opacity: 1;"></stop><stop data-v-423bf9ae="" offset="100%" style="stop-color: rgb(255, 237, 181); stop-opacity: 1;"></stop></linearGradient></defs><g data-v-423bf9ae="" id="d7c326cf-2a85-400b-8ac4-d99016b6d5e6" transform="matrix(2.8125,0,0,2.8125,0,0)" stroke="none" fill="url(#ad3bbad3-cb15-405e-9474-0c45e9e60af3)"><path d="M9.382 8.675h13.943v13.943L32 31.293V0H.707zM22.618 23.325H8.675V9.382L0 .707V32h31.293z"></path></g><!----></svg>